# xmcd CD database file
#
# Track frame offsets:
#	150
#	13315
#	27330
#	40667
#	56277
#	69140
#	85195
#	101220
#	116497
#	128467
#	141805
#	155425
#
# Disc length: 2269 seconds
#
# Revision: 0
# Processed by: cddbd v1.4PL0 Copyright (c) Steve Scherf et al.
# Submitted via: CDex 1.50
#
DISCID=9208db0c
DTITLE=Chalino Sanchez y Mercedez Castro - (1993) - ALMA ENAMORADA
DYEAR=1993
DGENRE=Banda Sinaloense
TTITLE0=alma enamorada
TTITLE1=una tarde
TTITLE2=el pavido navido
TTITLE3=me persigue tu sombra
TTITLE4=el navegante
TTITLE5=nocturno a rosario
TTITLE6=nieves de enero
TTITLE7=prenda del alma
TTITLE8=la loba del mal
TTITLE9=florita del alma
TTITLE10=los chismes
TTITLE11=corazoncito tirano
EXTD=YEAR: 1993
EXTT0=
EXTT1=
EXTT2=
EXTT3=
EXTT4=
EXTT5=
EXTT6=
EXTT7=
EXTT8=
EXTT9=
EXTT10=
EXTT11=
PLAYORDER=
